<svg width="81" height="81" viewBox="0 0 81 81" fill="none" xmlns="http://www.w3.org/2000/svg">
<path d="M25.6499 71.7111L22.1531 65.6432C21.7689 64.9766 22.2501 64.1439 23.0195 64.1439H40.0572C40.8266 64.1439 41.3078 63.3113 40.9236 62.6446L25.071 35.1365C24.8929 34.8275 24.8929 34.447 25.071 34.1379L39.3714 9.32328C39.7561 8.65569 40.7195 8.65569 41.1043 9.32328L55.4046 34.1379C55.5827 34.447 55.5827 34.8275 55.4046 35.1365L51.9529 41.126C51.5682 41.7936 50.6048 41.7936 50.2201 41.126L41.1043 25.3078C40.7195 24.6402 39.7561 24.6402 39.3714 25.3078L34.2827 34.1379C34.1046 34.447 34.1046 34.8275 34.2827 35.1365L54.7847 70.7125C55.1689 71.3792 54.6878 72.2118 53.9183 72.2118H26.5163C26.1588 72.2118 25.8284 72.0209 25.6499 71.7111Z" fill="black"/>
<path d="M25.6499 71.7111L22.1531 65.6432C21.7689 64.9766 22.2501 64.1439 23.0195 64.1439H40.0572C40.8266 64.1439 41.3078 63.3113 40.9236 62.6446L25.071 35.1365C24.8929 34.8275 24.8929 34.447 25.071 34.1379L39.3714 9.32328C39.7561 8.65569 40.7195 8.65569 41.1043 9.32328L55.4046 34.1379C55.5827 34.447 55.5827 34.8275 55.4046 35.1365L51.9529 41.126C51.5682 41.7936 50.6048 41.7936 50.2201 41.126L41.1043 25.3078C40.7195 24.6402 39.7561 24.6402 39.3714 25.3078L34.2827 34.1379C34.1046 34.447 34.1046 34.8275 34.2827 35.1365L54.7847 70.7125C55.1689 71.3792 54.6878 72.2118 53.9183 72.2118H26.5163C26.1588 72.2118 25.8284 72.0209 25.6499 71.7111Z" fill="black"/>
<path d="M12.1211 72.2117H5.07811C4.30867 72.2117 3.8275 71.379 4.21169 70.7124L19.3487 44.4458C19.7335 43.7783 20.6969 43.7783 21.0816 44.4458L24.6031 50.5565C24.7812 50.8655 24.7812 51.2461 24.6031 51.5551L12.9875 71.711C12.809 72.0208 12.4787 72.2117 12.1211 72.2117Z" fill="black"/>
<path d="M12.1211 72.2117H5.07811C4.30867 72.2117 3.8275 71.379 4.21169 70.7124L19.3487 44.4458C19.7335 43.7783 20.6969 43.7783 21.0816 44.4458L24.6031 50.5565C24.7812 50.8655 24.7812 51.2461 24.6031 51.5551L12.9875 71.711C12.809 72.0208 12.4787 72.2117 12.1211 72.2117Z" fill="black"/>
<path d="M68.418 72.0779H75.4609C76.2304 72.0779 76.7116 71.2452 76.3274 70.5786L61.1903 44.3121C60.8056 43.6445 59.8422 43.6445 59.4575 44.3121L55.936 50.4227C55.7579 50.7318 55.7579 51.1123 55.936 51.4213L67.5515 71.5772C67.7301 71.887 68.0604 72.0779 68.418 72.0779Z" fill="black"/>
<path d="M68.418 72.0779H75.4609C76.2304 72.0779 76.7116 71.2452 76.3274 70.5786L61.1903 44.3121C60.8056 43.6445 59.8422 43.6445 59.4575 44.3121L55.936 50.4227C55.7579 50.7318 55.7579 51.1123 55.936 51.4213L67.5515 71.5772C67.7301 71.887 68.0604 72.0779 68.418 72.0779Z" fill="black"/>
</svg>
