<svg width="388" height="81" viewBox="0 0 388 81" fill="none" xmlns="http://www.w3.org/2000/svg">
<path d="M25.6497 72.0341L22.1528 65.9662C21.7687 65.2996 22.2498 64.4669 23.0193 64.4669H40.0569C40.8264 64.4669 41.3076 63.6343 40.9234 62.9676L25.0708 35.4595C24.8927 35.1505 24.8927 34.77 25.0708 34.4609L39.3712 9.64628C39.7559 8.97869 40.7193 8.97869 41.104 9.64628L55.4044 34.4609C55.5825 34.77 55.5825 35.1505 55.4044 35.4595L51.9527 41.449C51.568 42.1166 50.6046 42.1166 50.2198 41.449L41.104 25.6308C40.7193 24.9632 39.7559 24.9632 39.3712 25.6308L34.2825 34.4609C34.1044 34.77 34.1044 35.1505 34.2825 35.4595L54.7845 71.0355C55.1687 71.7022 54.6875 72.5348 53.9181 72.5348H26.5161C26.1585 72.5348 25.8282 72.3439 25.6497 72.0341Z" fill="black"/>
<path d="M25.6497 72.0341L22.1528 65.9662C21.7687 65.2996 22.2498 64.4669 23.0193 64.4669H40.0569C40.8264 64.4669 41.3076 63.6343 40.9234 62.9676L25.0708 35.4595C24.8927 35.1505 24.8927 34.77 25.0708 34.4609L39.3712 9.64628C39.7559 8.97869 40.7193 8.97869 41.104 9.64628L55.4044 34.4609C55.5825 34.77 55.5825 35.1505 55.4044 35.4595L51.9527 41.449C51.568 42.1166 50.6046 42.1166 50.2198 41.449L41.104 25.6308C40.7193 24.9632 39.7559 24.9632 39.3712 25.6308L34.2825 34.4609C34.1044 34.77 34.1044 35.1505 34.2825 35.4595L54.7845 71.0355C55.1687 71.7022 54.6875 72.5348 53.9181 72.5348H26.5161C26.1585 72.5348 25.8282 72.3439 25.6497 72.0341Z" fill="white"/>
<path d="M12.1209 72.5348H5.07787C4.30842 72.5348 3.82725 71.7021 4.21144 71.0355L19.3485 44.769C19.7332 44.1014 20.6966 44.1014 21.0814 44.769L24.6028 50.8796C24.7809 51.1887 24.7809 51.5692 24.6028 51.8782L12.9873 72.0341C12.8088 72.3439 12.4784 72.5348 12.1209 72.5348Z" fill="black"/>
<path d="M12.1209 72.5348H5.07787C4.30842 72.5348 3.82725 71.7021 4.21144 71.0355L19.3485 44.769C19.7332 44.1014 20.6966 44.1014 21.0814 44.769L24.6028 50.8796C24.7809 51.1887 24.7809 51.5692 24.6028 51.8782L12.9873 72.0341C12.8088 72.3439 12.4784 72.5348 12.1209 72.5348Z" fill="white"/>
<path d="M68.4182 72.4011H75.4612C76.2306 72.4011 76.7118 71.5685 76.3276 70.9018L61.1906 44.6353C60.8058 43.9677 59.8424 43.9677 59.4577 44.6353L55.9362 50.746C55.7581 51.055 55.7581 51.4355 55.9362 51.7446L67.5518 71.9004C67.7303 72.2102 68.0607 72.4011 68.4182 72.4011Z" fill="black"/>
<path d="M68.4182 72.4011H75.4612C76.2306 72.4011 76.7118 71.5685 76.3276 70.9018L61.1906 44.6353C60.8058 43.9677 59.8424 43.9677 59.4577 44.6353L55.9362 50.746C55.7581 51.055 55.7581 51.4355 55.9362 51.7446L67.5518 71.9004C67.7303 72.2102 68.0607 72.4011 68.4182 72.4011Z" fill="white"/>
<path d="M110.04 31.5999H120.03L115.17 17.4519H115.062L110.04 31.5999ZM110.85 7.94791H119.544L133.962 46.5039H125.16L122.244 37.9179H107.826L104.802 46.5039H96.2695L110.85 7.94791Z" fill="white"/>
<path d="M149.749 31.4919L135.601 7.94791H145.105L154.123 23.1759L163.087 7.94791H172.537L158.227 31.7079V46.5039H149.749V31.4919Z" fill="white"/>
<path d="M182.256 7.94791H190.68L206.772 33.8139H206.88V7.94791H214.818V46.5039H206.34L190.302 20.6919H190.194V46.5039H182.256V7.94791Z" fill="white"/>
<path d="M228.761 7.94791H237.239V46.5039H228.761V7.94791Z" fill="white"/>
<path d="M279.031 42.1299C277.519 44.0739 275.845 45.4419 274.009 46.2339C272.173 46.9899 270.319 47.3679 268.447 47.3679C265.495 47.3679 262.831 46.8639 260.455 45.8559C258.115 44.8119 256.135 43.3899 254.515 41.5899C252.895 39.7899 251.653 37.6839 250.789 35.2719C249.925 32.8239 249.493 30.1959 249.493 27.3879C249.493 24.5079 249.925 21.8439 250.789 19.3959C251.653 16.9119 252.895 14.7519 254.515 12.9159C256.135 11.0799 258.115 9.63991 260.455 8.59591C262.831 7.55191 265.495 7.02991 268.447 7.02991C270.427 7.02991 272.335 7.33591 274.171 7.94791C276.043 8.52391 277.717 9.38791 279.193 10.5399C280.705 11.6919 281.947 13.1139 282.919 14.8059C283.891 16.4979 284.485 18.4419 284.701 20.6379H276.601C276.097 18.4779 275.125 16.8579 273.685 15.7779C272.245 14.6979 270.499 14.1579 268.447 14.1579C266.539 14.1579 264.919 14.5359 263.587 15.2919C262.255 16.0119 261.175 17.0019 260.347 18.2619C259.519 19.4859 258.907 20.8899 258.511 22.4739C258.151 24.0579 257.971 25.6959 257.971 27.3879C257.971 29.0079 258.151 30.5919 258.511 32.1399C258.907 33.6519 259.519 35.0199 260.347 36.2439C261.175 37.4679 262.255 38.4579 263.587 39.2139C264.919 39.9339 266.539 40.2939 268.447 40.2939C271.255 40.2939 273.415 39.5919 274.927 38.1879C276.475 36.7479 277.375 34.6779 277.627 31.9779H269.095V25.6599H285.295V46.5039H279.895L279.031 42.1299Z" fill="white"/>
<path d="M298.622 7.94791H310.556L319.574 34.4619H319.682L328.214 7.94791H340.148V46.5039H332.21V19.1799H332.102L322.652 46.5039H316.118L306.668 19.4499H306.56V46.5039H298.622V7.94791Z" fill="white"/>
<path d="M363.812 31.5999H373.802L368.942 17.4519H368.834L363.812 31.5999ZM364.622 7.94791H373.316L387.734 46.5039H378.932L376.016 37.9179H361.598L358.574 46.5039H350.042L364.622 7.94791Z" fill="white"/>
<path d="M98.7695 69.5479C98.8362 69.9213 98.9829 70.2479 99.2095 70.5279C99.4362 70.8079 99.7295 71.0279 100.09 71.1879C100.463 71.3346 100.896 71.4079 101.39 71.4079C102.163 71.4079 102.743 71.2346 103.13 70.8879C103.516 70.5279 103.71 70.0946 103.71 69.5879C103.71 69.1879 103.59 68.8546 103.35 68.5879C103.11 68.3213 102.77 68.0946 102.33 67.9079C101.903 67.7213 101.403 67.5413 100.83 67.3679C100.296 67.2079 99.7695 67.0346 99.2495 66.8479C98.7295 66.6613 98.2562 66.4279 97.8295 66.1479C97.4029 65.8679 97.0629 65.5079 96.8095 65.0679C96.5695 64.6146 96.4495 64.0479 96.4495 63.3679C96.4495 62.5146 96.6562 61.7879 97.0695 61.1879C97.4962 60.5879 98.0762 60.1346 98.8095 59.8279C99.5429 59.5213 100.39 59.3679 101.35 59.3679C102.163 59.3679 102.896 59.4879 103.55 59.7279C104.203 59.9546 104.75 60.2946 105.19 60.7479C105.643 61.1879 105.976 61.7346 106.19 62.3879L103.69 63.0679C103.623 62.7746 103.476 62.5213 103.25 62.3079C103.023 62.0946 102.75 61.9279 102.43 61.8079C102.11 61.6746 101.763 61.6079 101.39 61.6079C100.99 61.5946 100.623 61.6546 100.29 61.7879C99.9562 61.9213 99.6895 62.1146 99.4895 62.3679C99.2895 62.6213 99.1895 62.9146 99.1895 63.2479C99.1895 63.6213 99.3029 63.9213 99.5295 64.1479C99.7562 64.3613 100.056 64.5479 100.43 64.7079C100.803 64.8546 101.223 65.0013 101.69 65.1479C102.25 65.3079 102.81 65.4946 103.37 65.7079C103.93 65.9079 104.443 66.1679 104.91 66.4879C105.376 66.7946 105.75 67.1879 106.03 67.6679C106.323 68.1479 106.47 68.7546 106.47 69.4879C106.47 70.2613 106.283 70.9613 105.91 71.5879C105.55 72.2146 105.003 72.7146 104.27 73.0879C103.536 73.4613 102.616 73.6479 101.51 73.6479C100.603 73.6479 99.7762 73.5146 99.0295 73.2479C98.2962 72.9813 97.6895 72.5946 97.2095 72.0879C96.7295 71.5679 96.4162 70.9546 96.2695 70.2479L98.7695 69.5479Z" fill="white"/>
<path d="M145.685 61.7679H138.545V65.3279H143.885V67.5079H138.545V71.2479H145.685V73.5079H135.845V59.5079H145.685V61.7679Z" fill="white"/>
<path d="M174.533 66.5079C174.533 65.4546 174.713 64.4946 175.073 63.6279C175.433 62.7479 175.933 61.9946 176.573 61.3679C177.213 60.7279 177.96 60.2346 178.813 59.8879C179.68 59.5413 180.613 59.3679 181.613 59.3679C183.053 59.3679 184.327 59.7146 185.433 60.4079C186.553 61.0879 187.393 62.0679 187.953 63.3479L185.693 64.0079C185.4 63.4479 185.033 62.9946 184.593 62.6479C184.167 62.3013 183.7 62.0479 183.193 61.8879C182.687 61.7279 182.173 61.6479 181.653 61.6479C180.8 61.6479 180.04 61.8546 179.373 62.2679C178.707 62.6679 178.187 63.2346 177.813 63.9679C177.453 64.7013 177.273 65.5479 177.273 66.5079C177.273 67.4679 177.453 68.3146 177.813 69.0479C178.187 69.7679 178.707 70.3346 179.373 70.7479C180.04 71.1613 180.8 71.3679 181.653 71.3679C182.187 71.3679 182.713 71.2879 183.233 71.1279C183.767 70.9546 184.26 70.6679 184.713 70.2679C185.167 69.8679 185.553 69.3346 185.873 68.6679L188.093 69.2879C187.52 70.7413 186.667 71.8346 185.533 72.5679C184.4 73.2879 183.093 73.6479 181.613 73.6479C180.613 73.6479 179.68 73.4746 178.813 73.1279C177.96 72.7813 177.213 72.2879 176.573 71.6479C175.933 71.0079 175.433 70.2546 175.073 69.3879C174.713 68.5079 174.533 67.5479 174.533 66.5079Z" fill="white"/>
<path d="M217.47 59.5079H220.17V68.3479C220.17 69.0013 220.303 69.5546 220.57 70.0079C220.837 70.4479 221.197 70.7813 221.65 71.0079C222.117 71.2346 222.65 71.3479 223.25 71.3479C223.863 71.3479 224.404 71.2346 224.87 71.0079C225.337 70.7813 225.704 70.4479 225.97 70.0079C226.237 69.5546 226.37 69.0013 226.37 68.3479V59.5079H229.07V68.2079C229.07 69.1279 228.91 69.9279 228.59 70.6079C228.27 71.2879 227.83 71.8546 227.27 72.3079C226.723 72.7613 226.097 73.1013 225.39 73.3279C224.697 73.5413 223.97 73.6479 223.21 73.6479C222.197 73.6479 221.25 73.4479 220.37 73.0479C219.503 72.6479 218.803 72.0479 218.27 71.2479C217.737 70.4479 217.47 69.4346 217.47 68.2079V59.5079Z" fill="white"/>
<path d="M266.95 63.8279C266.95 63.2013 266.757 62.7013 266.37 62.3279C265.997 61.9546 265.41 61.7679 264.61 61.7679H261.63V65.9079H264.61C265.143 65.9079 265.583 65.8279 265.93 65.6679C266.277 65.4946 266.53 65.2546 266.69 64.9479C266.863 64.6279 266.95 64.2546 266.95 63.8279ZM264.69 59.5079C265.823 59.5079 266.757 59.7079 267.49 60.1079C268.237 60.4946 268.79 61.0213 269.15 61.6879C269.523 62.3413 269.71 63.0546 269.71 63.8279C269.71 64.3479 269.617 64.8679 269.43 65.3879C269.243 65.8946 268.95 66.3613 268.55 66.7879C268.15 67.2013 267.63 67.5346 266.99 67.7879C266.363 68.0413 265.597 68.1679 264.69 68.1679H261.63V73.5079H258.93V59.5079H264.69ZM266.21 67.2679L269.99 73.5079H266.97L263.35 67.2679H266.21Z" fill="white"/>
<path d="M299.255 59.5079H301.955V73.5079H299.255V59.5079Z" fill="white"/>
<path d="M331.205 59.5079H342.565V61.7679H338.245V73.5079H335.545V61.7679H331.205V59.5079Z" fill="white"/>
<path d="M381.02 59.5079H384.06L378.82 68.5879V73.5079H376.12V68.6079L370.88 59.5079H373.9L377.46 66.0079L381.02 59.5079Z" fill="white"/>
</svg>
