<svg width="388" height="81" viewBox="0 0 388 81" fill="none" xmlns="http://www.w3.org/2000/svg">
<path d="M25.6499 71.7111L22.1531 65.6432C21.7689 64.9766 22.2501 64.1439 23.0195 64.1439H40.0572C40.8266 64.1439 41.3078 63.3113 40.9236 62.6446L25.071 35.1365C24.8929 34.8275 24.8929 34.447 25.071 34.1379L39.3714 9.32328C39.7561 8.65569 40.7195 8.65569 41.1043 9.32328L55.4046 34.1379C55.5827 34.447 55.5827 34.8275 55.4046 35.1365L51.9529 41.126C51.5682 41.7936 50.6048 41.7936 50.2201 41.126L41.1043 25.3078C40.7195 24.6402 39.7561 24.6402 39.3714 25.3078L34.2827 34.1379C34.1046 34.447 34.1046 34.8275 34.2827 35.1365L54.7847 70.7125C55.1689 71.3792 54.6878 72.2118 53.9183 72.2118H26.5163C26.1588 72.2118 25.8284 72.0209 25.6499 71.7111Z" fill="black"/>
<path d="M25.6499 71.7111L22.1531 65.6432C21.7689 64.9766 22.2501 64.1439 23.0195 64.1439H40.0572C40.8266 64.1439 41.3078 63.3113 40.9236 62.6446L25.071 35.1365C24.8929 34.8275 24.8929 34.447 25.071 34.1379L39.3714 9.32328C39.7561 8.65569 40.7195 8.65569 41.1043 9.32328L55.4046 34.1379C55.5827 34.447 55.5827 34.8275 55.4046 35.1365L51.9529 41.126C51.5682 41.7936 50.6048 41.7936 50.2201 41.126L41.1043 25.3078C40.7195 24.6402 39.7561 24.6402 39.3714 25.3078L34.2827 34.1379C34.1046 34.447 34.1046 34.8275 34.2827 35.1365L54.7847 70.7125C55.1689 71.3792 54.6878 72.2118 53.9183 72.2118H26.5163C26.1588 72.2118 25.8284 72.0209 25.6499 71.7111Z" fill="black"/>
<path d="M12.1211 72.2117H5.07811C4.30867 72.2117 3.8275 71.379 4.21169 70.7124L19.3487 44.4458C19.7335 43.7783 20.6969 43.7783 21.0816 44.4458L24.6031 50.5565C24.7812 50.8655 24.7812 51.2461 24.6031 51.5551L12.9875 71.711C12.809 72.0208 12.4787 72.2117 12.1211 72.2117Z" fill="black"/>
<path d="M12.1211 72.2117H5.07811C4.30867 72.2117 3.8275 71.379 4.21169 70.7124L19.3487 44.4458C19.7335 43.7783 20.6969 43.7783 21.0816 44.4458L24.6031 50.5565C24.7812 50.8655 24.7812 51.2461 24.6031 51.5551L12.9875 71.711C12.809 72.0208 12.4787 72.2117 12.1211 72.2117Z" fill="black"/>
<path d="M68.418 72.0779H75.4609C76.2304 72.0779 76.7116 71.2452 76.3274 70.5786L61.1903 44.3121C60.8056 43.6445 59.8422 43.6445 59.4575 44.3121L55.936 50.4227C55.7579 50.7318 55.7579 51.1123 55.936 51.4213L67.5515 71.5772C67.7301 71.887 68.0604 72.0779 68.418 72.0779Z" fill="black"/>
<path d="M68.418 72.0779H75.4609C76.2304 72.0779 76.7116 71.2452 76.3274 70.5786L61.1903 44.3121C60.8056 43.6445 59.8422 43.6445 59.4575 44.3121L55.936 50.4227C55.7579 50.7318 55.7579 51.1123 55.936 51.4213L67.5515 71.5772C67.7301 71.887 68.0604 72.0779 68.418 72.0779Z" fill="black"/>
<path d="M110.04 31.2765H120.03L115.17 17.1285H115.062L110.04 31.2765ZM110.85 7.62454H119.544L133.962 46.1805H125.16L122.244 37.5945H107.826L104.802 46.1805H96.2695L110.85 7.62454Z" fill="black"/>
<path d="M149.749 31.1685L135.601 7.62454H145.105L154.123 22.8525L163.087 7.62454H172.537L158.227 31.3845V46.1805H149.749V31.1685Z" fill="black"/>
<path d="M182.256 7.62454H190.68L206.772 33.4905H206.88V7.62454H214.818V46.1805H206.34L190.302 20.3685H190.194V46.1805H182.256V7.62454Z" fill="black"/>
<path d="M228.761 7.62454H237.239V46.1805H228.761V7.62454Z" fill="black"/>
<path d="M279.031 41.8065C277.519 43.7505 275.845 45.1185 274.009 45.9105C272.173 46.6665 270.319 47.0445 268.447 47.0445C265.495 47.0445 262.831 46.5405 260.455 45.5325C258.115 44.4885 256.135 43.0665 254.515 41.2665C252.895 39.4665 251.653 37.3605 250.789 34.9485C249.925 32.5005 249.493 29.8725 249.493 27.0645C249.493 24.1845 249.925 21.5205 250.789 19.0725C251.653 16.5885 252.895 14.4285 254.515 12.5925C256.135 10.7565 258.115 9.31654 260.455 8.27254C262.831 7.22854 265.495 6.70654 268.447 6.70654C270.427 6.70654 272.335 7.01254 274.171 7.62454C276.043 8.20054 277.717 9.06454 279.193 10.2165C280.705 11.3685 281.947 12.7905 282.919 14.4825C283.891 16.1745 284.485 18.1185 284.701 20.3145H276.601C276.097 18.1545 275.125 16.5345 273.685 15.4545C272.245 14.3745 270.499 13.8345 268.447 13.8345C266.539 13.8345 264.919 14.2125 263.587 14.9685C262.255 15.6885 261.175 16.6785 260.347 17.9385C259.519 19.1625 258.907 20.5665 258.511 22.1505C258.151 23.7345 257.971 25.3725 257.971 27.0645C257.971 28.6845 258.151 30.2685 258.511 31.8165C258.907 33.3285 259.519 34.6965 260.347 35.9205C261.175 37.1445 262.255 38.1345 263.587 38.8905C264.919 39.6105 266.539 39.9705 268.447 39.9705C271.255 39.9705 273.415 39.2685 274.927 37.8645C276.475 36.4245 277.375 34.3545 277.627 31.6545H269.095V25.3365H285.295V46.1805H279.895L279.031 41.8065Z" fill="black"/>
<path d="M298.622 7.62454H310.556L319.574 34.1385H319.682L328.214 7.62454H340.148V46.1805H332.21V18.8565H332.102L322.652 46.1805H316.118L306.668 19.1265H306.56V46.1805H298.622V7.62454Z" fill="black"/>
<path d="M363.812 31.2765H373.802L368.942 17.1285H368.834L363.812 31.2765ZM364.622 7.62454H373.316L387.734 46.1805H378.932L376.016 37.5945H361.598L358.574 46.1805H350.042L364.622 7.62454Z" fill="black"/>
<path d="M98.7695 69.2244C98.8362 69.5978 98.9829 69.9244 99.2095 70.2044C99.4362 70.4844 99.7295 70.7044 100.09 70.8644C100.463 71.0111 100.896 71.0844 101.39 71.0844C102.163 71.0844 102.743 70.9111 103.13 70.5644C103.516 70.2044 103.71 69.7711 103.71 69.2644C103.71 68.8644 103.59 68.5311 103.35 68.2644C103.11 67.9978 102.77 67.7711 102.33 67.5844C101.903 67.3978 101.403 67.2178 100.83 67.0444C100.296 66.8844 99.7695 66.7111 99.2495 66.5244C98.7295 66.3378 98.2562 66.1044 97.8295 65.8244C97.4029 65.5444 97.0629 65.1844 96.8095 64.7444C96.5695 64.2911 96.4495 63.7244 96.4495 63.0444C96.4495 62.1911 96.6562 61.4644 97.0695 60.8644C97.4962 60.2644 98.0762 59.8111 98.8095 59.5044C99.5429 59.1978 100.39 59.0444 101.35 59.0444C102.163 59.0444 102.896 59.1644 103.55 59.4044C104.203 59.6311 104.75 59.9711 105.19 60.4244C105.643 60.8644 105.976 61.4111 106.19 62.0644L103.69 62.7444C103.623 62.4511 103.476 62.1978 103.25 61.9844C103.023 61.7711 102.75 61.6044 102.43 61.4844C102.11 61.3511 101.763 61.2844 101.39 61.2844C100.99 61.2711 100.623 61.3311 100.29 61.4644C99.9562 61.5978 99.6895 61.7911 99.4895 62.0444C99.2895 62.2978 99.1895 62.5911 99.1895 62.9244C99.1895 63.2978 99.3029 63.5978 99.5295 63.8244C99.7562 64.0378 100.056 64.2244 100.43 64.3844C100.803 64.5311 101.223 64.6778 101.69 64.8244C102.25 64.9844 102.81 65.1711 103.37 65.3844C103.93 65.5844 104.443 65.8444 104.91 66.1644C105.376 66.4711 105.75 66.8644 106.03 67.3444C106.323 67.8244 106.47 68.4311 106.47 69.1644C106.47 69.9378 106.283 70.6378 105.91 71.2644C105.55 71.8911 105.003 72.3911 104.27 72.7644C103.536 73.1378 102.616 73.3244 101.51 73.3244C100.603 73.3244 99.7762 73.1911 99.0295 72.9244C98.2962 72.6578 97.6895 72.2711 97.2095 71.7644C96.7295 71.2444 96.4162 70.6311 96.2695 69.9244L98.7695 69.2244Z" fill="black"/>
<path d="M145.685 61.4444H138.545V65.0044H143.885V67.1844H138.545V70.9244H145.685V73.1844H135.845V59.1844H145.685V61.4444Z" fill="black"/>
<path d="M174.533 66.1844C174.533 65.1311 174.713 64.1711 175.073 63.3044C175.433 62.4244 175.933 61.6711 176.573 61.0444C177.213 60.4044 177.96 59.9111 178.813 59.5644C179.68 59.2178 180.613 59.0444 181.613 59.0444C183.053 59.0444 184.327 59.3911 185.433 60.0844C186.553 60.7644 187.393 61.7444 187.953 63.0244L185.693 63.6844C185.4 63.1244 185.033 62.6711 184.593 62.3244C184.167 61.9778 183.7 61.7244 183.193 61.5644C182.687 61.4044 182.173 61.3244 181.653 61.3244C180.8 61.3244 180.04 61.5311 179.373 61.9444C178.707 62.3444 178.187 62.9111 177.813 63.6444C177.453 64.3778 177.273 65.2244 177.273 66.1844C177.273 67.1444 177.453 67.9911 177.813 68.7244C178.187 69.4444 178.707 70.0111 179.373 70.4244C180.04 70.8378 180.8 71.0444 181.653 71.0444C182.187 71.0444 182.713 70.9644 183.233 70.8044C183.767 70.6311 184.26 70.3444 184.713 69.9444C185.167 69.5444 185.553 69.0111 185.873 68.3444L188.093 68.9644C187.52 70.4178 186.667 71.5111 185.533 72.2444C184.4 72.9644 183.093 73.3244 181.613 73.3244C180.613 73.3244 179.68 73.1511 178.813 72.8044C177.96 72.4578 177.213 71.9644 176.573 71.3244C175.933 70.6844 175.433 69.9311 175.073 69.0644C174.713 68.1844 174.533 67.2244 174.533 66.1844Z" fill="black"/>
<path d="M217.47 59.1844H220.17V68.0244C220.17 68.6778 220.303 69.2311 220.57 69.6844C220.837 70.1244 221.197 70.4578 221.65 70.6844C222.117 70.9111 222.65 71.0244 223.25 71.0244C223.863 71.0244 224.404 70.9111 224.87 70.6844C225.337 70.4578 225.704 70.1244 225.97 69.6844C226.237 69.2311 226.37 68.6778 226.37 68.0244V59.1844H229.07V67.8844C229.07 68.8044 228.91 69.6044 228.59 70.2844C228.27 70.9644 227.83 71.5311 227.27 71.9844C226.723 72.4378 226.097 72.7778 225.39 73.0044C224.697 73.2178 223.97 73.3244 223.21 73.3244C222.197 73.3244 221.25 73.1244 220.37 72.7244C219.503 72.3244 218.803 71.7244 218.27 70.9244C217.737 70.1244 217.47 69.1111 217.47 67.8844V59.1844Z" fill="black"/>
<path d="M266.95 63.5044C266.95 62.8778 266.757 62.3778 266.37 62.0044C265.997 61.6311 265.41 61.4444 264.61 61.4444H261.63V65.5844H264.61C265.143 65.5844 265.583 65.5044 265.93 65.3444C266.277 65.1711 266.53 64.9311 266.69 64.6244C266.863 64.3044 266.95 63.9311 266.95 63.5044ZM264.69 59.1844C265.823 59.1844 266.757 59.3844 267.49 59.7844C268.237 60.1711 268.79 60.6978 269.15 61.3644C269.523 62.0178 269.71 62.7311 269.71 63.5044C269.71 64.0244 269.617 64.5444 269.43 65.0644C269.243 65.5711 268.95 66.0378 268.55 66.4644C268.15 66.8778 267.63 67.2111 266.99 67.4644C266.363 67.7178 265.597 67.8444 264.69 67.8444H261.63V73.1844H258.93V59.1844H264.69ZM266.21 66.9444L269.99 73.1844H266.97L263.35 66.9444H266.21Z" fill="black"/>
<path d="M299.255 59.1844H301.955V73.1844H299.255V59.1844Z" fill="black"/>
<path d="M331.205 59.1844H342.565V61.4444H338.245V73.1844H335.545V61.4444H331.205V59.1844Z" fill="black"/>
<path d="M381.02 59.1844H384.06L378.82 68.2644V73.1844H376.12V68.2844L370.88 59.1844H373.9L377.46 65.6844L381.02 59.1844Z" fill="black"/>
</svg>
