<svg width="28" height="28" viewBox="0 0 28 28" fill="none" xmlns="http://www.w3.org/2000/svg">
<path d="M21.6099 14.1159L15.9683 12.0312L13.8902 6.38531C13.7671 6.05098 13.5445 5.76245 13.2523 5.55864C12.9601 5.35483 12.6124 5.24555 12.2561 5.24555C11.8999 5.24555 11.5522 5.35483 11.26 5.55864C10.9678 5.76245 10.7451 6.05098 10.6221 6.38531L8.53081 12.0312L2.88488 14.1094C2.55055 14.2324 2.26201 14.4551 2.0582 14.7473C1.85439 15.0395 1.74512 15.3872 1.74512 15.7434C1.74512 16.0997 1.85439 16.4474 2.0582 16.7396C2.26201 17.0318 2.55055 17.2544 2.88488 17.3775L8.53081 19.4688L10.6089 25.1147C10.732 25.449 10.9547 25.7375 11.2469 25.9414C11.5391 26.1452 11.8867 26.2544 12.243 26.2544C12.5993 26.2544 12.9469 26.1452 13.2391 25.9414C13.5313 25.7375 13.754 25.449 13.8771 25.1147L15.9683 19.4688L21.6143 17.3906C21.9486 17.2676 22.2371 17.0449 22.4409 16.7527C22.6447 16.4605 22.754 16.1128 22.754 15.7566C22.754 15.4003 22.6447 15.0526 22.4409 14.7604C22.2371 14.4682 21.9486 14.2456 21.6143 14.1225L21.6099 14.1159ZM14.9839 17.9616C14.8652 18.0053 14.7573 18.0744 14.6678 18.1639C14.5783 18.2534 14.5093 18.3612 14.4655 18.48L12.2496 24.4836L10.038 18.4844C9.9943 18.3644 9.92485 18.2554 9.83453 18.165C9.74421 18.0747 9.63521 18.0053 9.51519 17.9616L3.51597 15.75L9.51519 13.5384C9.63521 13.4947 9.74421 13.4253 9.83453 13.335C9.92485 13.2446 9.9943 13.1356 10.038 13.0156L12.2496 7.01641L14.4611 13.0156C14.5049 13.1344 14.5739 13.2423 14.6634 13.3318C14.7529 13.4213 14.8608 13.4903 14.9796 13.5341L20.9832 15.75L14.9839 17.9616ZM15.7496 4.375C15.7496 4.14294 15.8418 3.92038 16.0058 3.75628C16.1699 3.59219 16.3925 3.5 16.6246 3.5H18.3746V1.75C18.3746 1.51794 18.4667 1.29538 18.6308 1.13128C18.7949 0.967187 19.0175 0.875 19.2496 0.875C19.4816 0.875 19.7042 0.967187 19.8683 1.13128C20.0324 1.29538 20.1246 1.51794 20.1246 1.75V3.5H21.8746C22.1066 3.5 22.3292 3.59219 22.4933 3.75628C22.6574 3.92038 22.7496 4.14294 22.7496 4.375C22.7496 4.60706 22.6574 4.82962 22.4933 4.99372C22.3292 5.15781 22.1066 5.25 21.8746 5.25H20.1246V7C20.1246 7.23206 20.0324 7.45462 19.8683 7.61872C19.7042 7.78281 19.4816 7.875 19.2496 7.875C19.0175 7.875 18.7949 7.78281 18.6308 7.61872C18.4667 7.45462 18.3746 7.23206 18.3746 7V5.25H16.6246C16.3925 5.25 16.1699 5.15781 16.0058 4.99372C15.8418 4.82962 15.7496 4.60706 15.7496 4.375ZM27.1246 9.625C27.1246 9.85706 27.0324 10.0796 26.8683 10.2437C26.7042 10.4078 26.4816 10.5 26.2496 10.5H25.3746V11.375C25.3746 11.6071 25.2824 11.8296 25.1183 11.9937C24.9542 12.1578 24.7316 12.25 24.4996 12.25C24.2675 12.25 24.0449 12.1578 23.8808 11.9937C23.7167 11.8296 23.6246 11.6071 23.6246 11.375V10.5H22.7496C22.5175 10.5 22.2949 10.4078 22.1308 10.2437C21.9667 10.0796 21.8746 9.85706 21.8746 9.625C21.8746 9.39294 21.9667 9.17038 22.1308 9.00628C22.2949 8.84219 22.5175 8.75 22.7496 8.75H23.6246V7.875C23.6246 7.64294 23.7167 7.42038 23.8808 7.25628C24.0449 7.09219 24.2675 7 24.4996 7C24.7316 7 24.9542 7.09219 25.1183 7.25628C25.2824 7.42038 25.3746 7.64294 25.3746 7.875V8.75H26.2496C26.4816 8.75 26.7042 8.84219 26.8683 9.00628C27.0324 9.17038 27.1246 9.39294 27.1246 9.625Z" fill="#FAFAFA"/>
</svg>
