<svg width="69" height="82" viewBox="0 0 69 82" fill="none" xmlns="http://www.w3.org/2000/svg">
<path d="M42 79.9998C42 80.3976 41.842 80.7792 41.5607 81.0605C41.2794 81.3418 40.8978 81.4998 40.5 81.4998H28.5C28.1022 81.4998 27.7206 81.3418 27.4393 81.0605C27.158 80.7792 27 80.3976 27 79.9998C27 79.602 27.158 79.2205 27.4393 78.9392C27.7206 78.6579 28.1022 78.4998 28.5 78.4998H40.5C40.8978 78.4998 41.2794 78.6579 41.5607 78.9392C41.842 79.2205 42 79.602 42 79.9998ZM34.5 36.4998C35.0933 36.4998 35.6734 36.3239 36.1667 35.9942C36.6601 35.6646 37.0446 35.196 37.2716 34.6479C37.4987 34.0997 37.5581 33.4965 37.4424 32.9145C37.3266 32.3326 37.0409 31.7981 36.6213 31.3785C36.2018 30.9589 35.6672 30.6732 35.0853 30.5575C34.5033 30.4417 33.9001 30.5011 33.3519 30.7282C32.8038 30.9552 32.3352 31.3398 32.0056 31.8331C31.6759 32.3265 31.5 32.9065 31.5 33.4998C31.5 34.2955 31.8161 35.0585 32.3787 35.6211C32.9413 36.1837 33.7043 36.4998 34.5 36.4998ZM68.895 54.1248L64.2562 74.9748C64.0938 75.7216 63.7422 76.4141 63.2353 76.986C62.7284 77.5579 62.0831 77.9901 61.3612 78.2411C60.8793 78.4107 60.3722 78.4981 59.8612 78.4998C58.849 78.4991 57.8668 78.1554 57.075 77.5248L46.4437 69.4998H22.5562L11.9287 77.5248C11.1369 78.1554 10.1548 78.4991 9.14249 78.4998C8.63153 78.4981 8.12448 78.4107 7.64249 78.2411C6.92064 77.9901 6.27534 77.5579 5.76843 76.986C5.26151 76.4141 4.90997 75.7216 4.74749 74.9748L0.104992 54.1248C-0.0437191 53.4533 -0.0365402 52.7567 0.125978 52.0884C0.288496 51.4202 0.602029 50.798 1.04249 50.2698L12.0487 37.0586C13.2862 17.0598 27.735 4.55357 31.7437 1.45607C32.5325 0.844864 33.5021 0.513184 34.5 0.513184C35.4979 0.513184 36.4675 0.844864 37.2562 1.45607C41.265 4.55357 55.7137 17.0598 56.9512 37.0586L67.9575 50.2698C68.398 50.798 68.7115 51.4202 68.874 52.0884C69.0365 52.7567 69.0437 53.4533 68.895 54.1248ZM22.9162 66.4998H46.0837C66.7762 30.6836 40.875 8.01857 35.4225 3.81482C35.1589 3.60925 34.8342 3.49761 34.5 3.49761C34.1657 3.49761 33.8411 3.60925 33.5775 3.81482C28.125 8.01857 2.22374 30.6836 22.9162 66.4998ZM20.0962 67.5986C14.67 58.0848 12.3487 49.4448 12 41.7723L3.34499 52.1748C3.1982 52.3511 3.09381 52.5588 3.03985 52.7818C2.98589 53.0047 2.9838 53.2371 3.03374 53.4611L7.66874 74.3223C7.72359 74.5715 7.8411 74.8026 8.01017 74.9938C8.17923 75.1849 8.39426 75.3297 8.63492 75.4146C8.87557 75.4994 9.1339 75.5215 9.38545 75.4786C9.63701 75.4358 9.87348 75.3295 10.0725 75.1698L10.1062 75.1436L20.0962 67.5986ZM65.655 52.1748L57 41.7723C56.6662 49.4448 54.345 58.0848 48.9187 67.5986L58.9087 75.1436L58.9425 75.1698C59.1415 75.3295 59.378 75.4358 59.6295 75.4786C59.8811 75.5215 60.1394 75.4994 60.3801 75.4146C60.6207 75.3297 60.8358 75.1849 61.0048 74.9938C61.1739 74.8026 61.2914 74.5715 61.3462 74.3223L65.9812 53.4611C66.0292 53.236 66.0247 53.0029 65.9681 52.7799C65.9115 52.5569 65.8044 52.3498 65.655 52.1748Z" fill="#FAFAFA"/>
</svg>
